<?xml version="1.0" standalone="no"?>
<!DOCTYPE svg PUBLIC "-//W3C//DTD SVG 1.0//EN" "http://www.w3.org/TR/2001/REC-SVG-20010904/DTD/svg10.dtd">
<svg xmlns="http://www.w3.org/2000/svg" xmlns:xlink="http://www.w3.org/1999/xlink" id="body_1" width="492" height="512">

<g transform="matrix(0.40000004 0 0 0.40000004 0 0)">
	<g transform="matrix(0.1 0 -0 -0.1 0 1280)">
        <path d="M5375 12793C 5352 12787 5166 12681 5103 12639C 5034 12592 5025 12560 4995 12260C 4970 12006 4832 10649 4770 10045C 4754 9886 4698 9334 4645 8820C 4593 8306 4533 7715 4512 7507C 4490 7299 4469 7125 4464 7121C 4459 7116 3472 6544 2270 5850C 1068 5156 74 4579 61 4567C 6 4517 0 4484 0 4240C 0 3996 7 3962 61 3914C 85 3893 6698 71 6794 22C 6891 -27 6697 -131 9297 1371C 10594 2119 11667 2743 11682 2757C 11697 2771 11716 2797 11724 2814C 11734 2836 11822 3719 12021 5808L12021 5808L12303 8772L12284 8817C 12274 8842 12249 8875 12230 8891C 12197 8917 5605 12728 5509 12777C 5465 12799 5420 12804 5375 12793zM5442 12247C 5482 12223 6928 11387 8655 10390C 10382 9393 11796 8576 11797 8576C 11798 8575 11763 8226 11720 7800C 11676 7374 11620 6823 11595 6575C 11570 6328 11541 6040 11530 5935C 11519 5831 11468 5324 11415 4810C 11363 4296 11307 3748 11291 3592C 11276 3437 11261 3307 11258 3305C 11254 3301 4854 6993 4836 7010C 4831 7015 4841 7152 4859 7327C 4902 7754 5053 9233 5095 9645C 5114 9832 5168 10363 5215 10825C 5262 11287 5314 11795 5330 11955C 5347 12114 5360 12255 5360 12267C 5360 12280 5362 12290 5364 12290C 5366 12290 5401 12271 5442 12247zM5228 6569C 5496 6414 6192 6012 6775 5675C 7358 5338 8445 4710 9190 4280C 9935 3850 10681 3419 10848 3322C 11014 3226 11149 3145 11146 3143C 11143 3140 10181 2583 9008 1906L9008 1906L6875 674L6715 766C 6627 817 5187 1648 3515 2614C 1844 3580 471 4372 465 4374C 459 4377 461 4383 470 4389C 509 4415 4726 6850 4733 6850C 4737 6850 4960 6723 5228 6569zM3603 2353C 6399 738 6840 486 6875 485C 6910 485 7177 637 9144 1773C 10370 2482 11379 3064 11385 3066C 11394 3070 11395 3060 11391 3034L11391 3034L11385 2997L9130 1694L6876 392L6829 419C 6804 433 5338 1280 3572 2300L3572 2300L360 4155L360 4188C 360 4205 363 4220 366 4220C 369 4220 1826 3380 3603 2353z" stroke="none" fill="#000000" fill-rule="nonzero" />
        <path d="M4605 6446C 4524 6410 2931 5484 2908 5459C 2874 5423 2872 5385 2903 5348C 2915 5333 4128 4627 5695 3722C 7219 2843 8479 2115 8497 2106C 8515 2097 8539 2090 8552 2090C 8574 2090 10258 3055 10288 3084C 10296 3091 10304 3115 10307 3137C 10311 3169 10308 3181 10289 3202C 10262 3231 4699 6446 4660 6454C 4646 6457 4622 6454 4605 6446zM7317 4719C 8784 3872 9997 3171 10012 3162L10012 3162L10038 3145L9302 2720C 8897 2486 8557 2295 8545 2296C 8534 2296 7499 2889 6245 3614C 4991 4339 3784 5036 3563 5163C 3342 5291 3161 5397 3160 5400C 3160 5406 4630 6259 4642 6260C 4646 6260 5849 5567 7317 4719z" stroke="none" fill="#000000" fill-rule="nonzero" />
        <path d="M3487 3871C 3174 3691 2912 3536 2904 3528C 2896 3520 2887 3498 2884 3478C 2879 3449 2883 3438 2906 3412C 2944 3372 5155 2097 5195 2092C 5220 2089 5327 2147 5785 2410C 6123 2604 6358 2746 6379 2767C 6407 2797 6411 2807 6406 2833C 6402 2851 6389 2875 6377 2887C 6365 2898 5851 3199 5236 3554C 4416 4027 4108 4200 4086 4200C 4064 4200 3893 4106 3487 3871zM5129 3406C 5680 3087 6127 2823 6123 2819C 6100 2797 5207 2289 5196 2292C 5176 2297 3160 3463 3160 3469C 3161 3472 3369 3595 3623 3741C 4027 3974 4088 4006 4106 3996C 4117 3990 4578 3724 5129 3406z" stroke="none" fill="#000000" fill-rule="nonzero" />
	</g>
</g>
</svg>